<svg xmlns="http://www.w3.org/2000/svg" viewBox="0 0 278.43 306.96">
  <defs>
    <style>
      .cls-1 {
        fill: #231f20;
      }
    </style>
  </defs>
  <g id="Layer_2" data-name="Layer 2">
    <g id="Layer_4" data-name="Layer 4">
      <g>
        <path class="cls-1" d="M95.16,291.24a17,17,0,0,1-8.76-2.58,9.19,9.19,0,0,1-3.14-3.15c-3.16-5.29-3.41-11.06-.69-15.85a14.52,14.52,0,0,1,12.59-7.35,17,17,0,0,1,8.74,2.57,9.19,9.19,0,0,1,3.15,3.14c3.16,5.29,3.42,11.07.71,15.86a14.51,14.51,0,0,1-12.6,7.36Zm0-23a9.61,9.61,0,0,0-5.83,2.08,3.33,3.33,0,0,0-.65.65,9.06,9.06,0,0,0-1.2,9.63,8.53,8.53,0,0,0,7.68,4.77,9.64,9.64,0,0,0,5.84-2.07,3.42,3.42,0,0,0,.68-.69,9.05,9.05,0,0,0,1.15-9.61A8.53,8.53,0,0,0,95.16,268.21Z" transform="translate(-3 -3)"/>
        <path class="cls-1" d="M80.22,29.26a3,3,0,0,1-2.76-1.89c-.48-1.24-.07-2.67,1.13-4h31.52a3,3,0,0,1,2.76,1.9,3.93,3.93,0,0,1-1.13,4Z" transform="translate(-3 -3)"/>
        <path class="cls-1" d="M20.59,310A17.61,17.61,0,0,1,3,292.38V20.58A17.61,17.61,0,0,1,20.59,3H169.74a17.6,17.6,0,0,1,17.58,17.58V82.81l4.51-2.6a2.86,2.86,0,0,1,1.47-.41h22.91a3,3,0,0,1,2.93,2.56l2.67,20,1.74.61a54.47,54.47,0,0,1,5.73,2.37l1.66.8L249,92.33l18,18a3,3,0,0,1,.26,3.89l-12.27,16,.79,1.66a56,56,0,0,1,2.38,5.74l.61,1.74,20,2.66a3,3,0,0,1,2.56,2.93v22.92a3,3,0,0,1-2.56,2.93l-20,2.66-.61,1.74a56,56,0,0,1-2.38,5.74l-.79,1.66,12.26,16a3,3,0,0,1-.26,3.89l-18,18-18.11-13.84-1.66.8a57.11,57.11,0,0,1-5.74,2.37l-1.73.61-3,22.59H193.3a2.86,2.86,0,0,1-1.47-.41l-4.51-2.6v62.23A17.59,17.59,0,0,1,169.74,310Zm0-301.06A11.69,11.69,0,0,0,8.91,20.58v271.8a11.69,11.69,0,0,0,11.68,11.68H169.74a11.69,11.69,0,0,0,11.68-11.68V204.6L163.3,218.46v34.47H27V46.31H163.3V94.5l18.12,13.86V20.58A11.69,11.69,0,0,0,169.74,8.9ZM32.92,247H157.4V217.56l-16.79-16.79,13.84-18.1-.8-1.66a54.19,54.19,0,0,1-2.38-5.74l-.61-1.74-22.58-3V145a3,3,0,0,1,2.56-2.93l20-2.66.61-1.74a54.19,54.19,0,0,1,2.38-5.74l.8-1.66-12.27-16a3,3,0,0,1,.25-3.88l15-15V52.21H32.92Zm163-19.77h17.75l2.58-19.39a3,3,0,0,1,2.35-2.5,38.42,38.42,0,0,0,11.18-4.67,3,3,0,0,1,3.25.22l15.53,11.89,12.55-12.55-11.88-15.54a2.94,2.94,0,0,1-.1-3.44,30.43,30.43,0,0,0,4.55-11,2.94,2.94,0,0,1,2.51-2.36l19.38-2.58V147.6L256.14,145a3,3,0,0,1-2.51-2.35A37.84,37.84,0,0,0,249,131.51a3,3,0,0,1,.22-3.26l11.89-15.54-12.55-12.55-17.13,13.1a51,51,0,0,0-14.93-6.19l-2.84-21.36H195.88L193,107.07a50.87,50.87,0,0,0-14.92,6.19L161,100.16l-12.55,12.55,13.09,17.12a50.76,50.76,0,0,0-6.19,14.93L134,147.6v17.75l21.36,2.85a50.78,50.78,0,0,0,6.19,14.93l-13.09,17.12L161,212.8l17.13-13.1A50.86,50.86,0,0,0,193,205.89Z" transform="translate(-3 -3)"/>
        <path class="cls-1" d="M204.76,185.87a33.38,33.38,0,0,1-16-4.28,22.54,22.54,0,0,1-9.11-9.12c-5.63-10.39-5.68-21.69-.15-31a29.6,29.6,0,0,1,25.28-14.4,33.34,33.34,0,0,1,16,4.26,22.56,22.56,0,0,1,9.13,9.11c5.64,10.41,5.69,21.71.15,31a29.55,29.55,0,0,1-25.26,14.4Zm0-52.87a26.23,26.23,0,0,0-13.6,3.94,17.32,17.32,0,0,0-6,6c-4.91,8.26-5.22,17.42-.84,25.11A23.56,23.56,0,0,0,204.76,180a26.25,26.25,0,0,0,13.53-3.9,17.21,17.21,0,0,0,6-6c5-8.26,5.28-17.42.91-25.14A23.56,23.56,0,0,0,204.76,133Z" transform="translate(-3 -3)"/>
      </g>
    </g>
  </g>
</svg>
