<svg xmlns="http://www.w3.org/2000/svg" viewBox="0 0 1510.95 1182.14">
  <defs>
    <style>
      .cls-1, .cls-2 {
        fill: none;
        stroke: #000;
        stroke-miterlimit: 10;
      }

      .cls-1 {
        stroke-width: 5px;
      }

      .cls-2 {
        stroke-width: 16px;
      }
    </style>
  </defs>
  <g id="Layer_2" data-name="Layer 2">
    <g id="Layer_1-2" data-name="Layer 1">
      <g>
        <path d="M585.79,948.34V829.8l0-.45c-.74-9.06-8.67-90.63-59.53-162.8-37.72-53.52-89.5-88.51-153.91-104-25.46-6.12-53.24-9.22-82.56-9.22-38.38,0-80.52,5.31-125.27,15.79l-8.49,2V948.34H140.37V562.58h8.69l-1.43-5.38c50.84-12.85,98.52-19.37,141.86-19.37,30.61,0,59.66,3.25,86.36,9.67C444.16,563.91,499,601,539,657.61c55.89,79.32,62.34,170.88,62.4,171.8l0,.88V948.34Z" transform="translate(-11 -11)"/>
        <rect x="333.11" y="298.85" width="719.62" height="15.57" transform="translate(-9.31 606.07) rotate(-48.06)"/>
        <polygon points="577.65 780.57 934.07 120.81 947.77 128.17 591.35 787.94 577.65 780.57"/>
        <path d="M659.12,685.35l-.66,0L531.65,669.83a7.81,7.81,0,1,1,1.89-15.5l114.6,14-73.2-237.55a7.83,7.83,0,0,1,7.69-9.23,7.92,7.92,0,0,1,2.72.49l.36.14L751,471,685.39,308.74a7.84,7.84,0,0,1,7.19-9.91h.2L857,285.12,818.37,159.91a7.83,7.83,0,0,1,5.38-8.89,8,8,0,0,1,1-.23l.37-.07,130.23-32.46a8.06,8.06,0,0,1,1.84-.22A7.77,7.77,0,0,1,959,133.36L835.9,164,874.43,288.8l.16.4a8,8,0,0,1,.52,2.24L856.36,293l.64,7.79L704.08,313.54l67,165.64.18.35a7.82,7.82,0,0,1-7,11.25,7.45,7.45,0,0,1-1.4-.13l-.8-.24-167.7-49.5,71.9,233.36.16.4a7.71,7.71,0,0,1,.48,3.81A7.81,7.81,0,0,1,659.12,685.35Z" transform="translate(-11 -11)"/>
        <path d="M60.74,1193.14A49.87,49.87,0,0,1,11,1143.4V1001.26a49.87,49.87,0,0,1,49.74-49.74H681.05a49.88,49.88,0,0,1,49.74,49.74V1143.4a49.88,49.88,0,0,1-49.74,49.74Zm0-226a34.23,34.23,0,0,0-34.11,34.11V1143.4a34.23,34.23,0,0,0,34.11,34.11H681.05a34.25,34.25,0,0,0,34.11-34.11V1001.26a34.25,34.25,0,0,0-34.11-34.11Z" transform="translate(-11 -11)"/>
        <path d="M973.34,131.43a60.21,60.21,0,1,1,42.58-17.63A59.81,59.81,0,0,1,973.34,131.43Zm0-104.8a44.58,44.58,0,1,0,44.59,44.59A44.63,44.63,0,0,0,973.34,26.63Z" transform="translate(-11 -11)"/>
        <path d="M1230,738.05a74.48,74.48,0,0,1-18.53-2.26c-15.85-4.08-27.56-13.28-33-25.9l-.1-.24A3.76,3.76,0,0,1,1179,708a10.91,10.91,0,0,1,5.28-4.4,12.24,12.24,0,0,1,4.78-1,5.6,5.6,0,0,1,3.62,1l.1.23c5.08,11.85,15.6,20.37,29.63,24a58,58,0,0,0,14.42,1.78,68.22,68.22,0,0,0,26.54-5.59l.53-.23c13.24-5.8,24.05-15.3,30.48-26.81,7-12.59,8.1-26.08,3-38s-15.59-20.41-29.56-24a58.42,58.42,0,0,0-14.42-1.77,66.21,66.21,0,0,0-20.54,3.32l-1.09.35-2,1.16-.39.27a13.22,13.22,0,0,1-2.31,1.27l-.47.19a12.23,12.23,0,0,1-4.31.85c-2.34,0-3.64-.83-3.79-1.18l-.17-.39.13-.06-.3-.62-.1,0L998,125.07c-.34-.8,1.17-4.31,5.8-6.3a12.48,12.48,0,0,1,4.78-1c2.48,0,3.66.87,3.79,1.17l218.07,508.82.11-.05.61,1.42,9-2.09a88.15,88.15,0,0,1,20-2.35,74.48,74.48,0,0,1,18.53,2.26c15.91,4.09,27.64,13.28,33,25.87s4,27.43-4,41.77c-8.53,15.28-23.29,28-41.56,35.84l-.32.13A92.48,92.48,0,0,1,1230,738.05Z" transform="translate(-11 -11)"/>
        <path d="M1152.09,606.79c-2.47,0-3.66-.87-3.79-1.17a2.84,2.84,0,0,1,.52-1.9,11,11,0,0,1,5.29-4.4L1248.18,559a12.24,12.24,0,0,1,4.78-1c2.47,0,3.65.88,3.78,1.18a2.85,2.85,0,0,1-.52,1.9,11,11,0,0,1-5.28,4.4l-94.07,40.32a12.4,12.4,0,0,1-4.78,1Z" transform="translate(-11 -11)"/>
        <path d="M243.82,876.44a7.86,7.86,0,0,1-7.72-6.66l0-1L231,650.67l18.33-4.91-2-7.4c27.06-6.52,52.51-9.82,75.8-9.82a211.6,211.6,0,0,1,49.33,5.53c39.21,9.42,70.71,30.67,93.61,63.17,29.24,41.49,34.75,88.15,35.56,97.08l0,.28,0,.28a8.07,8.07,0,0,1,.07,1.11v68.08l-3.05,3.06-14.11-6.32h1.54v-65l-.05-.48c-.71-8.14-5.63-50.67-32.77-89.18-20.69-29.37-49.09-48.57-84.4-57a195.69,195.69,0,0,0-45.55-5.08c-20.85,0-43.75,2.84-68.07,8.43l-8.74,2,4.84,206.31H464.13v7.82a30,30,0,0,0,1,7.81Z" transform="translate(-11 -11)"/>
        <path d="M93.33,1089.76a7.82,7.82,0,1,1,0-15.63h88.42a7.82,7.82,0,1,1,0,15.63Z" transform="translate(-11 -11)"/>
        <path d="M248.89,1089.76a7.82,7.82,0,0,1,0-15.63h88.43a7.82,7.82,0,1,1,0,15.63Z" transform="translate(-11 -11)"/>
        <path d="M404.46,1089.76a7.82,7.82,0,0,1,0-15.63h88.43a7.82,7.82,0,1,1,0,15.63Z" transform="translate(-11 -11)"/>
        <path d="M560,1089.76a7.82,7.82,0,0,1,0-15.63h88.43a7.82,7.82,0,1,1,0,15.63Z" transform="translate(-11 -11)"/>
        <polygon points="460.35 858.4 452.57 858.72 452.57 852.41 490.75 854.28 490.75 856.74 490.2 858.88 483.68 861.19 480.21 865.16 460.35 858.4"/>
      </g>
      <g>
        <g>
          <g>
            <path d="M981.32,956.52V814.34h40.53q19.44,0,29.25,9.47t9.81,28.42a31.41,31.41,0,0,1-5,17.58,33.52,33.52,0,0,1-13.47,11.81,27.06,27.06,0,0,1,15.48,12q5.7,9.09,5.71,21.88,0,19.14-10.5,30.08t-29.93,10.93ZM999.19,875h22.95q9.28,0,15-6.26t5.72-16.64q0-11.75-5.18-17.08t-15.82-5.33H999.19Zm0,15v51.17h24.42q10.16,0,16.11-6.69t6-18.8q0-25.68-21.68-25.68Z" transform="translate(-11 -11)"/>
            <path d="M1133.37,899h-25v57.52h-18V814.34h39.84q20.89,0,31.64,10.89t10.74,31.88q0,13.18-5.81,23a36.72,36.72,0,0,1-16.45,14.79l27.54,60.45v1.17h-19.24Zm-25-15.33h21.68q11.23,0,17.92-7.24t6.69-19.37q0-27.39-24.8-27.39h-21.49Z" transform="translate(-11 -11)"/>
            <path d="M1262.87,919.32h-48l-11,37.2h-18.35l45.8-142.18h15.33l45.9,142.18H1274.1ZM1219.51,904h38.77l-19.44-64.64Z" transform="translate(-11 -11)"/>
            <path d="M1404.66,956.52h-18L1329.76,847V956.52h-18V814.34h18l57.13,110v-110h17.77Z" transform="translate(-11 -11)"/>
            <path d="M1435.62,956.52V814.34h33.89q24.9,0,38.67,15.57t13.77,43.8v23.83q0,28.22-14,43.6t-40.52,15.38Zm17.87-126.85V941.19h14.36q18.84,0,27.54-10.8t8.88-32V873.16q0-22.47-8.64-33t-26.12-10.5Z" transform="translate(-11 -11)"/>
          </g>
          <line class="cls-1" x1="1150.89" y1="814.22" x2="1226.38" y2="708.34"/>
        </g>
        <line class="cls-1" x1="1305.44" y1="817.55" x2="1223.7" y2="708.12"/>
      </g>
      <line class="cls-2" x1="452.72" y1="857.48" x2="482.62" y2="857.1"/>
    </g>
  </g>
</svg>
