<?xml version="1.0" encoding="utf-8"?>
<!-- Generator: Adobe Illustrator 25.0.0, SVG Export Plug-In . SVG Version: 6.00 Build 0)  -->
<svg version="1.1" id="Layer_1" xmlns="http://www.w3.org/2000/svg" xmlns:xlink="http://www.w3.org/1999/xlink" x="0px" y="0px"
	 viewBox="0 0 1510.9 1182.1" style="enable-background:new 0 0 1510.9 1182.1;" xml:space="preserve">
<style type="text/css">
	.st0{fill:none;stroke:#000000;stroke-width:5;stroke-miterlimit:10;}
	.st1{fill:none;stroke:#000000;stroke-width:16;stroke-miterlimit:10;}
</style>
<g id="Layer_2_1_">
	<g id="Layer_1-2">
		<g>
			<path d="M574.8,937.3V818.8v-0.5c-0.7-9.1-8.7-90.6-59.5-162.8c-37.7-53.5-89.5-88.5-153.9-104c-25.5-6.1-53.2-9.2-82.6-9.2
				c-38.4,0-80.5,5.3-125.3,15.8l-8.5,2v377.2h-15.7V551.6h8.7l-1.4-5.4c50.8-12.8,98.5-19.4,141.9-19.4c30.6,0,59.7,3.2,86.4,9.7
				C433.2,552.9,488,590,528,646.6c55.9,79.3,62.3,170.9,62.4,171.8v0.9v118.1H574.8z"/>
			<rect x="322.1" y="287.8" transform="matrix(0.6684 -0.7438 0.7438 0.6684 6.2792 605.2533)" width="719.6" height="15.6"/>
			<polygon points="577.7,780.6 934.1,120.8 947.8,128.2 591.3,787.9 			"/>
			<path d="M648.1,674.3h-0.7l-126.8-15.5c-4.3-0.4-7.4-4.2-7-8.5c0.4-4.3,4.2-7.4,8.5-7c0.1,0,0.3,0,0.4,0l114.6,14l-73.2-237.5
				c-0.8-4.3,2-8.3,6.3-9.1c0.5-0.1,0.9-0.1,1.4-0.1c0.9,0,1.8,0.2,2.7,0.5l0.4,0.1L740,460l-65.6-162.3c-1.1-4.2,1.3-8.5,5.5-9.6
				c0.6-0.2,1.1-0.2,1.7-0.3h0.2L846,274.1l-38.6-125.2c-0.7-3.9,1.6-7.7,5.4-8.9c0.3-0.1,0.7-0.2,1-0.2l0.4-0.1l130.2-32.5
				c0.6-0.1,1.2-0.2,1.8-0.2c4.3,0,7.8,3.5,7.7,7.8c0,3.6-2.5,6.7-5.9,7.5L824.9,153l38.5,124.8l0.2,0.4c0.3,0.7,0.5,1.5,0.5,2.2
				l-18.8,1.6l0.6,7.8l-152.9,12.8l67,165.6l0.2,0.4c1.9,3.9,0.3,8.6-3.6,10.5c-1.1,0.5-2.2,0.8-3.4,0.8c-0.5,0-0.9,0-1.4-0.1
				l-0.8-0.2l-167.7-49.5l71.9,233.4l0.2,0.4c0.5,1.2,0.6,2.5,0.5,3.8C655.4,671.4,652.1,674.4,648.1,674.3z"/>
			<path d="M49.7,1182.1c-27.4-0.1-49.7-22.3-49.7-49.7V990.3c0.1-27.4,22.3-49.7,49.7-49.7H670c27.4,0.1,49.7,22.3,49.7,49.7v142.1
				c-0.1,27.4-22.3,49.7-49.7,49.7H49.7z M49.7,956.1c-18.8,0.1-34,15.3-34.1,34.1v142.2c0.1,18.8,15.3,34,34.1,34.1H670
				c18.8-0.1,34-15.3,34.1-34.1V990.3c-0.1-18.8-15.3-34-34.1-34.1L49.7,956.1z"/>
			<path d="M962.3,120.4c-33.3,0-60.2-27-60.2-60.2c0-33.3,27-60.2,60.2-60.2c33.3,0,60.2,27,60.2,60.2c0,16-6.3,31.3-17.6,42.6
				C993.7,114.1,978.3,120.5,962.3,120.4z M962.3,15.6c-24.6,0-44.6,20-44.6,44.6c0,24.6,20,44.6,44.6,44.6
				c24.6,0,44.6-20,44.6-44.6C1006.9,35.6,987,15.7,962.3,15.6z"/>
			<path d="M1219,727c-6.2,0-12.5-0.7-18.5-2.3c-15.8-4.1-27.6-13.3-33-25.9l-0.1-0.2c0.1-0.6,0.3-1.2,0.6-1.6
				c1.2-2,3.1-3.5,5.3-4.4c1.5-0.7,3.1-1,4.8-1c1.3-0.1,2.6,0.3,3.6,1l0.1,0.2c5.1,11.8,15.6,20.4,29.6,24c4.7,1.2,9.6,1.8,14.4,1.8
				c9.1-0.1,18.2-2,26.5-5.6l0.5-0.2c13.2-5.8,24.1-15.3,30.5-26.8c7-12.6,8.1-26.1,3-38s-15.6-20.4-29.6-24
				c-4.7-1.2-9.6-1.8-14.4-1.8c-7,0-13.9,1.1-20.5,3.3l-1.1,0.3l-2,1.2l-0.4,0.3c-0.7,0.5-1.5,0.9-2.3,1.3l-0.5,0.2
				c-1.4,0.5-2.8,0.8-4.3,0.8c-2.3,0-3.6-0.8-3.8-1.2l-0.2-0.4l0.1-0.1l-0.3-0.6h-0.1L987,114.1c-0.3-0.8,1.2-4.3,5.8-6.3
				c1.5-0.6,3.1-1,4.8-1c2.5,0,3.7,0.9,3.8,1.2l218.1,508.8l0.1,0l0.6,1.4l9-2.1c6.6-1.5,13.3-2.3,20-2.3c6.2,0,12.5,0.7,18.5,2.3
				c15.9,4.1,27.6,13.3,33,25.9s4,27.4-4,41.8c-8.5,15.3-23.3,28-41.6,35.8l-0.3,0.1C1243.5,724.4,1231.3,727,1219,727z"/>
			<path d="M232.8,865.4c-3.9,0-7.1-2.8-7.7-6.7v-1L220,639.7l18.3-4.9l-2-7.4c27.1-6.5,52.5-9.8,75.8-9.8
				c16.6-0.1,33.2,1.8,49.3,5.5c39.2,9.4,70.7,30.7,93.6,63.2c29.2,41.5,34.8,88.2,35.6,97.1v0.3v0.3c0,0.4,0.1,0.7,0.1,1.1v68.1
				l-3,3.1l-14.1-6.3h1.5v-65l0-0.5c-0.7-8.1-5.6-50.7-32.8-89.2c-20.7-29.4-49.1-48.6-84.4-57c-14.9-3.5-30.2-5.2-45.5-5.1
				c-20.9,0-43.8,2.8-68.1,8.4l-8.7,2l4.8,206.3h212.8v7.8c0,2.6,0.3,5.3,1,7.8L232.8,865.4z"/>
			<polygon points="460.4,858.4 452.6,858.7 452.6,852.4 490.8,854.3 490.8,856.7 490.2,858.9 483.7,861.2 480.2,865.2 			"/>
		</g>
		<g>
			<g>
				<g>
					<path d="M970.3,945.5V803.3h40.5c13,0,22.7,3.2,29.2,9.5c6.5,6.3,9.8,15.8,9.8,28.4c0.1,6.2-1.6,12.3-5,17.6
						c-3.3,5.1-8,9.2-13.5,11.8c6.5,1.9,12,6.2,15.5,12c3.8,6.1,5.7,13.4,5.7,21.9c0,12.8-3.5,22.8-10.5,30.1s-17,10.9-29.9,10.9
						L970.3,945.5z M988.2,864h23c6.2,0,11.2-2.1,15-6.3c3.8-4.2,5.7-9.7,5.7-16.6c0-7.8-1.7-13.5-5.2-17.1s-8.7-5.3-15.8-5.3h-22.7
						V864z M988.2,879v51.2h24.4c6.8,0,12.1-2.2,16.1-6.7s6-10.7,6-18.8c0-17.1-7.2-25.7-21.7-25.7H988.2z"/>
					<path d="M1122.4,888h-25v57.5h-18V803.3h39.8c13.9,0,24.5,3.6,31.6,10.9c7.2,7.3,10.7,17.9,10.7,31.9c0,8.8-1.9,16.5-5.8,23
						c-3.8,6.5-9.6,11.7-16.4,14.8l27.5,60.5v1.2h-19.2L1122.4,888z M1097.4,872.7h21.7c7.5,0,13.5-2.4,17.9-7.2
						c4.5-4.8,6.7-11.3,6.7-19.4c0-18.3-8.3-27.4-24.8-27.4h-21.5V872.7z"/>
					<path d="M1251.9,908.3h-48l-11,37.2h-18.3l45.8-142.2h15.3l45.9,142.2h-18.5L1251.9,908.3z M1208.5,893h38.8l-19.4-64.6
						L1208.5,893z"/>
					<path d="M1393.7,945.5h-18L1318.8,836v109.5h-18V803.3h18l57.1,110v-110h17.8V945.5z"/>
					<path d="M1424.6,945.5V803.3h33.9c16.6,0,29.5,5.2,38.7,15.6c9.2,10.4,13.8,25,13.8,43.8v23.8c0,18.8-4.7,33.3-14,43.6
						c-9.3,10.3-22.8,15.4-40.5,15.4H1424.6z M1442.5,818.7v111.5h14.4c12.6,0,21.7-3.6,27.5-10.8s8.8-17.9,8.9-32v-25.2
						c0-15-2.9-26-8.6-33s-14.5-10.5-26.1-10.5L1442.5,818.7z"/>
				</g>
				<line class="st0" x1="1150.9" y1="814.2" x2="1226.4" y2="708.3"/>
			</g>
			<line class="st0" x1="1305.4" y1="817.5" x2="1223.7" y2="708.1"/>
		</g>
		<line class="st1" x1="452.7" y1="857.5" x2="482.6" y2="857.1"/>
	</g>
</g>
</svg>
