<svg xmlns="http://www.w3.org/2000/svg" viewBox="0 0 257.03 287.19">
  <defs>
    <style>
      .cls-1 {
        fill: #231f20;
      }

      .cls-2 {
        fill: none;
        stroke: #231f20;
        stroke-miterlimit: 10;
      }
    </style>
  </defs>
  <g id="Layer_2" data-name="Layer 2">
    <g id="Layer_4" data-name="Layer 4">
      <g>
        <g>
          <path class="cls-1" d="M6.48,290.69a2,2,0,0,1-2-2V47.59c0-.11,0-.21,0-.32s0-.13,0-.18l0-.14a2.29,2.29,0,0,1,.08-.28l.07-.14.18-.3A1.06,1.06,0,0,1,5.07,46L45.81,5.25l.2-.18a1,1,0,0,1,.2-.17l.13-.08a1.24,1.24,0,0,1,.22-.12l.1,0a2.22,2.22,0,0,1,.31-.1l.12,0h155.4a2,2,0,0,1,2,2V288.7a2,2,0,0,1-2,2Zm2-4h192V8.46H49.37V47.39a2,2,0,0,1-2,2H8.46Zm2.8-241.31H45.41V11.26Z" transform="translate(-4 -4)"/>
          <path class="cls-2" d="M6.48,290.69a2,2,0,0,1-2-2V47.59c0-.11,0-.21,0-.32s0-.13,0-.18l0-.14a2.29,2.29,0,0,1,.08-.28l.07-.14.18-.3A1.06,1.06,0,0,1,5.07,46L45.81,5.25l.2-.18a1,1,0,0,1,.2-.17l.13-.08a1.24,1.24,0,0,1,.22-.12l.1,0a2.22,2.22,0,0,1,.31-.1l.12,0h155.4a2,2,0,0,1,2,2V288.7a2,2,0,0,1-2,2Zm2-4h192V8.46H49.37V47.39a2,2,0,0,1-2,2H8.46Zm2.8-241.31H45.41V11.26Z" transform="translate(-4 -4)"/>
        </g>
        <g>
          <path class="cls-1" d="M36.31,103.34a2,2,0,1,1,0-4H172.66a2,2,0,0,1,0,4Z" transform="translate(-4 -4)"/>
          <path class="cls-2" d="M36.31,103.34a2,2,0,1,1,0-4H172.66a2,2,0,0,1,0,4Z" transform="translate(-4 -4)"/>
        </g>
        <g>
          <path class="cls-1" d="M36.31,135.16a2,2,0,0,1,0-4H172.66a2,2,0,0,1,0,4Z" transform="translate(-4 -4)"/>
          <path class="cls-2" d="M36.31,135.16a2,2,0,0,1,0-4H172.66a2,2,0,0,1,0,4Z" transform="translate(-4 -4)"/>
        </g>
        <g>
          <path class="cls-1" d="M36.31,167a2,2,0,0,1,0-4H172.66a2,2,0,0,1,0,4Z" transform="translate(-4 -4)"/>
          <path class="cls-2" d="M36.31,167a2,2,0,0,1,0-4H172.66a2,2,0,0,1,0,4Z" transform="translate(-4 -4)"/>
        </g>
        <g>
          <path class="cls-1" d="M36.31,198.79a2,2,0,0,1,0-4H172.66a2,2,0,0,1,0,4Z" transform="translate(-4 -4)"/>
          <path class="cls-2" d="M36.31,198.79a2,2,0,0,1,0-4H172.66a2,2,0,0,1,0,4Z" transform="translate(-4 -4)"/>
        </g>
        <g>
          <path class="cls-1" d="M104.49,230.61a2,2,0,1,1,0-4h68.17a2,2,0,0,1,0,4Z" transform="translate(-4 -4)"/>
          <path class="cls-2" d="M104.49,230.61a2,2,0,1,1,0-4h68.17a2,2,0,0,1,0,4Z" transform="translate(-4 -4)"/>
        </g>
        <g>
          <path class="cls-1" d="M241.27,258.12A19.28,19.28,0,0,1,222,238.87V75l.05-.33a2,2,0,0,1,0-.23,1.17,1.17,0,0,1,0-.2l.13-.24.06-.23,17.13-39.54a2,2,0,0,1,3.64,0l17.27,39.86a1.52,1.52,0,0,1,.1.34c0,.1,0,.17,0,.25s0,.33,0,.33V238.87A19.28,19.28,0,0,1,241.27,258.12ZM228.3,247a15.29,15.29,0,0,0,25.94,0l3.83-6.12h-33.6ZM226,236.89h30.6V76.9H226Zm1-163.95h28.52L241.27,40Z" transform="translate(-4 -4)"/>
          <path class="cls-2" d="M241.27,258.12A19.28,19.28,0,0,1,222,238.87V75l.05-.33a2,2,0,0,1,0-.23,1.17,1.17,0,0,1,0-.2l.13-.24.06-.23,17.13-39.54a2,2,0,0,1,3.64,0l17.27,39.86a1.52,1.52,0,0,1,.1.34c0,.1,0,.17,0,.25s0,.33,0,.33V238.87A19.28,19.28,0,0,1,241.27,258.12ZM228.3,247a15.29,15.29,0,0,0,25.94,0l3.83-6.12h-33.6ZM226,236.89h30.6V76.9H226Zm1-163.95h28.52L241.27,40Z" transform="translate(-4 -4)"/>
        </g>
      </g>
    </g>
  </g>
</svg>
