<?xml version="1.0" encoding="utf-8"?>
<!-- Generator: Adobe Illustrator 25.0.0, SVG Export Plug-In . SVG Version: 6.00 Build 0)  -->
<svg version="1.1" id="Layer_1" xmlns="http://www.w3.org/2000/svg" xmlns:xlink="http://www.w3.org/1999/xlink" x="0px" y="0px"
	 viewBox="0 0 1216.1 815" style="enable-background:new 0 0 1216.1 815;" xml:space="preserve">
<style type="text/css">
	.st0{fill:none;stroke:#000000;stroke-width:5;stroke-miterlimit:10;}
</style>
<g id="Layer_2_1_">
	<g id="Layer_1-2">
		<g>
			<path d="M110.7,382.5v238.9H87V364.7h3.4l-0.4-1.4c63.7-17.1,114-17.5,153.8-7.9c51.2,12.3,84.8,40.9,106.7,72.1
				C387.3,479.6,391,539,391,539.2v0.8v81.4h-23.6v-81.3c-0.5-6-5.3-55.2-36.2-99.1c-19.1-27.1-48.3-52-92.9-62.7
				C205.1,370.4,163.3,370.1,110.7,382.5z"/>
			<polygon points="626.1,27.3 294.5,392 276.9,376.2 608.5,11.5 			"/>
			<polygon points="638,84.8 387.6,529.8 366.7,518.6 617.2,73.6 			"/>
			<path d="M342.3,422.5c-6.5-0.8-12.4,3.8-13.2,10.3s3.8,12.4,10.3,13.2l0,0l79.6,9.7l0,0c6.5,0.8,12.4-3.8,13.2-10.3
				c0.2-2,0-4-0.7-5.8l-41.3-134.3l93.2,27.5l0,0c6.3,1.9,12.9-1.7,14.7-8c0.8-2.9,0.6-5.9-0.7-8.6L458.7,221L572,195.7l-1-11.8
				l1,11.8c6.5-0.6,11.4-6.3,10.8-12.8c-0.1-1.2-0.4-2.3-0.8-3.4l-22-71.3l70.4-17.5c6.4-1.6,10.2-8,8.7-14.3s-8-10.2-14.3-8.7l0,0
				L543,88.1c-0.5,0.1-1,0.2-1.4,0.3c-6.2,1.9-9.8,8.6-7.8,14.8c0,0,0,0,0,0l-19.4,17.4l21.6,70.1l-94.7,7.9
				c-6.5,0.3-11.6,5.8-11.3,12.4c0.1,1.3,0.3,2.7,0.9,3.9l0,0l35.7,88.3l-90-26.6c-6.1-2.3-12.9,0.8-15.3,6.9
				c-0.9,2.5-1,5.2-0.2,7.7l0,0L403.8,430L342.3,422.5z"/>
			<path d="M43.8,609.5h390.5c10.1,0,19.8,4,27,11.2c6.9,6.9,5.7,56,5.7,66.5v89.5c0,21.1-17.1,38.2-38.2,38.2H38.2
				C17.1,815,0,797.9,0,776.8v-89.5c0-10.5,9.9-59.6,16.8-66.5C23.9,613.6,33.6,609.5,43.8,609.5L43.8,609.5z M434.3,633.2H43.8
				c-3.9,0-7.5,1.5-10.3,4.3c-2.6,2.6-9.8,45.8-9.8,49.8v89.5c0,8,6.5,14.5,14.6,14.5h390.5c8,0,14.5-6.5,14.5-14.5v-89.5
				c0-4,3.9-47.1,1.3-49.8C441.8,634.8,438.2,633.2,434.3,633.2z"/>
			<path d="M637.8,0c24.8,0,44.8,20,44.9,44.8c0,24.8-20,44.8-44.8,44.9c-24.8,0-44.8-20-44.9-44.8c0,0,0,0,0,0
				C593,20.1,613.1,0,637.8,0z M658.9,44.8c0-11.7-9.5-21.1-21.2-21.1c-11.7,0-21.1,9.5-21.1,21.2S626.2,66,637.9,66
				c5.6,0,10.9-2.2,14.9-6.2C656.7,55.9,659,50.5,658.9,44.8z"/>
			<path d="M676.8,50c-3.9-5.2-11.3-6.3-16.6-2.4c-5.2,3.9-6.3,11.3-2.4,16.6l0,0l272.6,363l1.8,2.4c3.8,5.1,11,6.2,16.2,2.6l0,0
				c0.1-0.1,0.2-0.2,0.4-0.3c0.8-0.6,1.6-1.3,2.2-2.1l0.3-0.3c13.8-8,31.5-3.3,39.5,10.6c7.3,12.6,4,28.7-7.6,37.5l0,0
				c-12.7,9.6-30.8,7.1-40.5-5.6l0,0l0,0c-3.9-5.2-11.3-6.3-16.6-2.4c-5.2,3.9-6.3,11.3-2.4,16.6l0,0l0,0l0,0
				c17.4,23.2,50.3,27.9,73.5,10.6c0,0,0.1,0,0.1-0.1l0,0c23.2-17.4,27.9-50.4,10.4-73.6c-14.7-19.5-40.9-26.4-63.3-16.5l-1.6-2.3
				h-0.1L676.8,50z M680.8,536.6c0-0.2,0-0.4,0-0.6V536.6z"/>
			<path d="M877.6,391.3c-5.3,3.8-6.5,11.2-2.7,16.5c3.8,5.3,11.2,6.5,16.5,2.7c0.2-0.1,0.4-0.3,0.6-0.4l51.1-39.3
				c5.2-4,6.2-11.4,2.2-16.6s-11.4-6.2-16.6-2.2l0,0L877.6,391.3z"/>
			<path d="M304.7,564.3c0.2,6.5,5.6,11.7,12.2,11.5c6.3-0.2,11.3-5.2,11.5-11.5l-11.9,11.8H159.1c-6.4,0-11.7-5.1-11.9-11.6h0.1
				L144,427.1c-0.6-5.8,3.1-11.2,8.7-12.7l3.1,11.4l-3.1-11.4c36.6-9.8,65.8-10,88.9-4.5c30.2,7.3,50,24.1,63,42.5
				c19.5,27.7,23.1,58.9,23.6,64.5c0.1,0.6,0.1,1.1,0.1,1.7v45.7c0-2.6,0.1-0.6-0.5,1.1c-0.8,2.6-2.9,6.3-6.9,6.3L304.7,564.3
				L304.7,564.3z M304.7,552.4v-33.7c-0.4-4.1-3.2-29.8-19.4-52.8c-11.6-16.8-29.2-28.6-49.1-33.2c-17.7-4.3-40.1-4.4-68.4,2.1
				l2.8,117.5L304.7,552.4z"/>
			<polygon points="318,541.9 328.3,541.8 328.3,553.7 328.4,562 328.3,564.6 327,569.6 324.7,571.1 321,572.4 317.8,576 
				316.7,576.1 315.5,576.1 313.3,575.8 301.3,571.7 292,572.1 290.5,569.5 290.5,553.7 318.9,555.1 			"/>
		</g>
		<g>
			<path d="M692.9,567h41c13,0,22.8,1,29.5,3c6.7,2,12.4,6.4,16.2,12.2c4.1,6.1,6.2,16.1,6.2,29.7c0,9.2-1.4,15.7-4.3,19.3
				c-2.9,3.6-8.6,6.4-17.1,8.4c9.5,2.1,15.9,5.7,19.3,10.7s5.1,12.6,5.1,22.9V688c0,10.7-1.2,18.6-3.7,23.7
				c-2.3,5-6.5,8.8-11.7,10.5c-5.3,1.9-16.3,2.8-32.8,2.8h-47.6V567z M734,594v35.2c1.8-0.1,3.1-0.1,4.1-0.1c4,0,6.6-1,7.7-3
				s1.7-7.7,1.7-17c0-5-0.5-8.4-1.4-10.4c-0.6-1.7-1.9-3-3.6-3.8C741.1,594.4,738.2,594.1,734,594z M734,653.8V698
				c5.8-0.2,9.5-1.1,11.1-2.7c1.6-1.6,2.4-5.6,2.4-12v-14.7c0-6.8-0.7-10.9-2.2-12.3S740.1,654,734,653.8L734,653.8z"/>
			<path d="M803.3,567h29.1c19.4,0,32.5,0.8,39.4,2.2c6.9,1.5,12.9,5.6,16.8,11.5c4.3,6.1,6.5,16,6.5,29.5c0,12.3-1.5,20.6-4.6,24.8
				c-3.1,4.2-9.1,6.8-18.1,7.6c8.1,2,13.6,4.7,16.4,8.1s4.5,6.5,5.2,9.3c0.7,2.8,1,10.6,1,23.4v41.7H857v-52.6
				c0-8.5-0.7-13.7-2-15.7c-1.3-2-4.8-3-10.5-3v71.3h-41.2V567z M844.5,594v35.2c4.6,0,7.9-0.6,9.7-1.9s2.8-5.4,2.8-12.3v-8.7
				c0-5-0.9-8.3-2.7-9.9C852.5,594.8,849.2,594,844.5,594z"/>
			<path d="M982.1,567l23.5,158.1h-42l-2.2-28.4h-14.7l-2.5,28.4h-42.5l21-158.1H982.1z M960.3,668.6c-2.1-17.9-4.2-40-6.3-66.4
				c-4.2,30.3-6.8,52.4-7.9,66.4H960.3z"/>
			<path d="M1104.4,567v158.1h-36l-21.4-71.9v71.9h-34.4V567h34.4l23,71.2V567H1104.4z"/>
			<path d="M1120.9,567h30.8c19.8,0,33.3,0.9,40.3,2.7c7,1.8,12.3,4.8,16,9c3.5,3.9,5.9,8.7,6.8,13.9c0.9,5.1,1.4,15.2,1.4,30.1
				v55.4c0,14.2-0.7,23.7-2,28.5c-1.1,4.4-3.5,8.3-7,11.2c-3.6,2.8-7.8,4.8-12.3,5.7c-4.9,1.1-12.2,1.6-22.1,1.6h-51.8L1120.9,567z
				 M1162,594v104c5.9,0,9.6-1.2,10.9-3.6s2-8.8,2-19.4v-61.4c0-7.2-0.2-11.8-0.7-13.8c-0.3-1.9-1.5-3.5-3.1-4.4
				C1169.5,594.5,1166.5,594,1162,594z"/>
		</g>
		<line class="st0" x1="878.5" y1="575.2" x2="949.8" y2="466.8"/>
		<line class="st0" x1="1018.5" y1="573.9" x2="949.8" y2="466.8"/>
	</g>
</g>
</svg>
