<svg xmlns="http://www.w3.org/2000/svg" viewBox="0 0 1216.13 815">
  <defs>
    <style>
      .cls-1 {
        fill: none;
        stroke: #000;
        stroke-miterlimit: 10;
        stroke-width: 5px;
      }
    </style>
  </defs>
  <g id="Layer_2" data-name="Layer 2">
    <g id="Layer_1-2" data-name="Layer 1">
      <g>
        <path d="M110.68,382.47V621.38H87V364.68h3.38l-.37-1.4c63.65-17.06,114-17.46,153.78-7.9,51.23,12.31,84.78,40.92,106.73,72.06C387.27,479.61,391,539,391.05,539.15l0,.79v81.44H367.4V540.11c-.49-6-5.34-55.22-36.23-99.06-19.1-27.11-48.3-52-92.85-62.72C205.13,370.35,163.33,370.15,110.68,382.47Z"/>
        <polygon points="626.08 27.32 294.52 392.03 276.94 376.2 608.5 11.5 626.08 27.32"/>
        <polygon points="638.01 84.8 387.56 529.77 366.74 518.58 617.19 73.61 638.01 84.8"/>
        <path d="M342.27,422.49A11.84,11.84,0,0,0,339.4,446L419,455.73h0a11.85,11.85,0,0,0,13.19-10.32,11.72,11.72,0,0,0-.74-5.79L390.11,305.31l93.19,27.5v0a11.84,11.84,0,0,0,14-16.57L458.74,221,572,195.68l-1-11.8,1,11.81a11.84,11.84,0,0,0,10-16.18l-22-71.29,70.37-17.54a11.82,11.82,0,1,0-5.64-23L543,88.11a10.77,10.77,0,0,0-1.44.35,11.84,11.84,0,0,0-7.82,14.81L514.3,120.7l21.63,70.05-94.7,7.9a11.84,11.84,0,0,0-10.44,16.27h0l35.7,88.31-90-26.57A11.83,11.83,0,0,0,361,291.23h0L403.81,430Z"/>
        <path d="M43.78,609.54H434.3a38.14,38.14,0,0,1,27,11.22c6.93,6.92,5.67,56,5.67,66.52v89.49A38.31,38.31,0,0,1,428.75,815H38.24A38.31,38.31,0,0,1,0,776.77V687.28c0-10.52,9.85-59.6,16.77-66.52a38.14,38.14,0,0,1,27-11.22ZM434.3,633.23H43.78a14.5,14.5,0,0,0-10.26,4.28c-2.64,2.64-9.83,45.78-9.83,49.77v89.49a14.61,14.61,0,0,0,14.55,14.54H428.75a14.63,14.63,0,0,0,14.55-14.54V687.28c0-4,3.9-47.13,1.26-49.77A14.5,14.5,0,0,0,434.3,633.23Z"/>
        <path d="M637.8,0A44.83,44.83,0,1,1,593,44.83,44.83,44.83,0,0,1,637.8,0Zm21.14,44.83a21.13,21.13,0,1,0-6.19,15A21.15,21.15,0,0,0,658.94,44.83Z"/>
        <path d="M676.85,50a11.84,11.84,0,1,0-18.94,14.22l272.62,363,1.83,2.44a11.85,11.85,0,0,0,16.2,2.63h0c.13-.09.25-.17.37-.27a11.76,11.76,0,0,0,2.2-2.14l.31-.32a28.88,28.88,0,0,1,31.83,48.07h0A28.95,28.95,0,0,1,942.82,472l0,0h0a11.84,11.84,0,1,0-18.94,14.22h0l0,0a52.49,52.49,0,0,0,73.56,10.49h0a52.57,52.57,0,0,0-52.85-90.1L943,404.34l-.06,0L676.85,50Zm3.94,486.58c0-.18,0-.37,0-.56Z"/>
        <path d="M877.58,391.34A11.84,11.84,0,1,0,892,410.11l51.06-39.3A11.84,11.84,0,1,0,928.64,352Z"/>
        <path d="M304.66,564.28a11.85,11.85,0,0,0,23.69,0L316.5,576.12H159.05a11.85,11.85,0,0,1-11.85-11.57h.05L144,427.06a11.84,11.84,0,0,1,8.71-12.74l3.07,11.44-3.06-11.43c36.64-9.81,65.76-10,88.89-4.45,30.23,7.26,50,24.14,63,42.51,19.5,27.67,23.11,58.88,23.62,64.48a11.62,11.62,0,0,1,.12,1.67v45.74c0-2.6.08-.63-.48,1.06-.84,2.57-2.9,6.26-6.85,6.26l-16.36-7.32Zm0-11.85V518.75c-.36-4.13-3.2-29.78-19.39-52.76a81.81,81.81,0,0,0-49.1-33.16c-17.7-4.26-40.08-4.39-68.35,2.12l2.75,117.48Z"/>
        <path d="M58.75,726.23a11.85,11.85,0,0,0,0,23.69h55.67a11.85,11.85,0,1,0,0-23.69Z"/>
        <path d="M156.69,726.23a11.85,11.85,0,1,0,0,23.69h55.67a11.85,11.85,0,0,0,0-23.69Z"/>
        <path d="M254.63,726.23a11.85,11.85,0,1,0,0,23.69H310.3a11.85,11.85,0,0,0,0-23.69Z"/>
        <path d="M352.56,726.23a11.85,11.85,0,0,0,0,23.69h55.67a11.85,11.85,0,1,0,0-23.69Z"/>
        <polygon points="318.01 541.88 328.34 541.84 328.34 553.68 328.35 561.95 328.34 564.6 327.05 569.62 324.66 571.14 320.99 572.44 317.84 576.05 316.7 576.12 315.51 576.12 313.28 575.82 301.28 571.73 292 572.12 290.46 569.53 290.46 553.72 318.86 555.11 318.01 541.88"/>
      </g>
      <g>
        <path d="M692.89,567h41q19.44,0,29.45,3a29.18,29.18,0,0,1,16.16,12.24q6.15,9.22,6.15,29.72,0,13.86-4.34,19.32t-17.14,8.4q14.25,3.22,19.33,10.7t5.08,22.91V688q0,16-3.66,23.74a19.73,19.73,0,0,1-11.67,10.55q-8,2.84-32.81,2.84H692.89ZM734,594v35.16c1.76-.07,3.13-.1,4.1-.1q6.06,0,7.72-3t1.66-17c0-5-.46-8.41-1.37-10.4a6.58,6.58,0,0,0-3.56-3.76Q740.35,594.13,734,594Zm0,59.77V698q8.7-.3,11.09-2.74t2.39-12V668.54q0-10.15-2.15-12.3T734,653.8Z"/>
        <path d="M803.34,567h29.1q29.1,0,39.4,2.25a27.14,27.14,0,0,1,16.8,11.47q6.5,9.22,6.49,29.45,0,18.45-4.59,24.8t-18.06,7.62q12.21,3,16.4,8.1t5.23,9.33q1,4.25,1,23.39v41.7H857V672.55q0-12.7-2-15.73t-10.5-3v71.29H803.34Zm41.11,27v35.16q6.93,0,9.72-1.91T857,614.93v-8.69q0-7.51-2.68-9.86T844.45,594Z"/>
        <path d="M982.12,567l23.51,158.11h-42l-2.21-28.42H946.7l-2.47,28.42h-42.5L922.7,567ZM960.33,668.64q-3.12-26.86-6.26-66.41-6.29,45.42-7.89,66.41Z"/>
        <path d="M1104.41,567V725.09h-36L1047,653.21v71.88h-34.38V567H1047l23,71.19V567Z"/>
        <path d="M1120.92,567h30.76q29.77,0,40.28,2.74t16,9a28.5,28.5,0,0,1,6.83,13.92q1.37,7.67,1.37,30.12v55.37q0,21.3-2,28.47a21.41,21.41,0,0,1-7,11.23,29.18,29.18,0,0,1-12.31,5.67q-7.32,1.6-22.07,1.61h-51.85ZM1162,594V698q8.88,0,10.94-3.57t2-19.38V613.66q0-10.74-.69-13.77a6.51,6.51,0,0,0-3.12-4.44Q1168.76,594,1162,594Z"/>
      </g>
      <line class="cls-1" x1="878.48" y1="575.16" x2="949.75" y2="466.75"/>
      <line class="cls-1" x1="1018.51" y1="573.87" x2="949.75" y2="466.75"/>
    </g>
  </g>
</svg>
