<svg xmlns="http://www.w3.org/2000/svg" viewBox="0 0 371.53 342.58">
  <defs>
    <style>
      .cls-1 {
        fill: #010101;
      }
    </style>
  </defs>
  <g id="Layer_2" data-name="Layer 2">
    <g id="Layer_4" data-name="Layer 4">
      <g>
        <path class="cls-1" d="M258.27,345H258a1.68,1.68,0,0,1-1.16-.61,1.78,1.78,0,0,1-.43-1.12l14.1-181.77,3.51.14s0,.33,0,.33L260.07,341.64,278.82,343l18.71-107.32,0-.11a1.73,1.73,0,0,1,.15-.55,1.81,1.81,0,0,1,.37-.5l.13-.12a1.88,1.88,0,0,1,.65-.32,1.53,1.53,0,0,1,.44-.06l.3,0a1.75,1.75,0,0,1,1.46,1.62v.18L317.71,343l18.66-1.32-.55-4.21c-9.15-69.85-13.33-101.73-13.33-175a1.76,1.76,0,0,1,2.51-1.59l.12.06.13,0a39.6,39.6,0,0,1,19.16,16.25c7.56,12.11,10.28,28.88,8.09,49.87l-.41,3.85,18.46,2.55.45-4.08c2.63-23.89.2-44.28-7.22-60.6-9.16-20.14-24.72-30.75-36.23-34l-1.83-.51-1.55,1.09a43.73,43.73,0,0,1-40.12,5.29,44.25,44.25,0,0,1-11.33-6.09l-1.59-1.18-1.9.55c-1.64.47-10.29,3.31-19.21,12.92a55.3,55.3,0,0,0-12.09,21.2l-1.82-.46-1.4,5.59a1.76,1.76,0,0,1-1-.71l-.11-.16-.13-.15c-2.85-3.35-6.27-7-9.63-10.42-1.7-1.7-3.36-3.29-4.93-4.72l-3.15-2.87-11.68,14.54,2.67,2.53c3.73,3.54,7.93,8.06,11.64,12.05l2.83,3.05h0c7.49,8,14.06,14.5,20,14.93.51,0,1,.05,1.47.05,2.93,0,5.14-.69,6.75-2.12,2-1.75,3.08-4.6,3.37-8.7.64-9,2.59-16.25,5.79-21.5a19,19,0,0,1,9.71-8.39l0,.6-5.85,8.29c-.28.41-.57.85-.86,1.32-2.9,4.75-4.67,11.46-5.27,19.92-.36,5.05-1.85,8.66-4.56,11.06-2.3,2-5.28,3-9.1,3-.54,0-1.1,0-1.67-.06-8-.56-16.12-9.35-24.76-18.66l-.26-.28c-5.31-5.71-10.79-11.62-15.14-15.19l-.12-.09-.23-.17a1.76,1.76,0,0,1-.39-2.28l13.84-17.21.15-.21,4.49,3.61,1-1.29c2.11,1.85,4.38,4,6.71,6.32,1.18,1.18,2.39,2.42,3.58,3.69l4.25,4.51,2.36-5.72a57.43,57.43,0,0,1,11-17.31,49.16,49.16,0,0,1,23.44-14.21l.24,0,.24-.08a1.73,1.73,0,0,1,.6-.11,1.8,1.8,0,0,1,.89.24l.22.19a40.33,40.33,0,0,0,50.56,1l.16-.12.15-.14a1.74,1.74,0,0,1,1.2-.48h0l.27.05c10.06,1.81,30.11,11.56,41.5,36.6,8.26,18.15,10.54,41,6.8,67.91v.12l0,.28A1.76,1.76,0,0,1,372,237.2h0l-21.87-3-.28,0a1.77,1.77,0,0,1-1.5-1.78l0-.21c3.21-22.77.88-40.64-6.92-53.12a38.1,38.1,0,0,0-8.94-10l-6.5-5,.05,8.21c.35,66.42,4.51,98.23,13.65,167.93l.33,2.57,0,.16a1,1,0,0,1,0,.24,1.75,1.75,0,0,1-1.46,1.86l-22.11,1.57-.89-5.69-1.72.26-11-70.68-7.9-.08-13,74.56,0,.1a1.74,1.74,0,0,1-1.69,1.55Z" transform="translate(-4 -4)"/>
        <path class="cls-1" d="M299,118.62a27,27,0,1,1,19.1-7.91A26.84,26.84,0,0,1,299,118.62Zm0-50.51A23.49,23.49,0,1,0,315.61,75,23.34,23.34,0,0,0,299,68.11Z" transform="translate(-4 -4)"/>
        <path class="cls-1" d="M208.51,162.14a1.71,1.71,0,0,1-1.29-.57L136.6,83.62a1.74,1.74,0,0,1,.12-2.45,1.7,1.7,0,0,1,1.17-.44,1.74,1.74,0,0,1,1.29.57l70.61,78a1.74,1.74,0,0,1,.45,1.25,1.79,1.79,0,0,1-.57,1.2,1.7,1.7,0,0,1-1.16.44Z" transform="translate(-4 -4)"/>
        <path class="cls-1" d="M16.65,122.52a1.68,1.68,0,0,1-.94-.29,1.71,1.71,0,0,1-.51-2.4L45.79,72.58a1.75,1.75,0,0,1,1.32-.6,1.7,1.7,0,0,1,1,.28,1.75,1.75,0,0,1,.58.6l.09.17,11.2,16L85.29,58.49a1.73,1.73,0,0,1,1.15-.43,1.71,1.71,0,0,1,1.12.41l.12.1.18.14,17.08,13.23,31.6-37.45a1.75,1.75,0,0,1,2.46-.21,1.77,1.77,0,0,1,.21,2.47l-32.5,38.51-.15.19a1.77,1.77,0,0,1-2.24.42L86.7,62.23,61.37,92.73l-.1.16a1.84,1.84,0,0,1-.44.44l-3.31-4.72-1.42,1L47.17,76.85,18.11,121.73A1.72,1.72,0,0,1,16.65,122.52Z" transform="translate(-4 -4)"/>
        <path class="cls-1" d="M140.45,65.67a1.75,1.75,0,0,1-1.72-1.58L136.3,37.51l-26.59,2.43h-.16a1.75,1.75,0,0,1-1.72-1.59,1.73,1.73,0,0,1,1.57-1.88L138,33.86a1.78,1.78,0,0,1,1.64,1.6v.33l2.56,28a1.73,1.73,0,0,1-1.57,1.88Z" transform="translate(-4 -4)"/>
        <path class="cls-1" d="M5.76,134.2A1.76,1.76,0,0,1,4,132.44V5.76A1.76,1.76,0,0,1,5.76,4H174a1.76,1.76,0,0,1,1.76,1.76V132.44A1.76,1.76,0,0,1,174,134.2Zm1.76-3.52H172.19V7.52H7.52Z" transform="translate(-4 -4)"/>
      </g>
    </g>
  </g>
</svg>
