<svg xmlns="http://www.w3.org/2000/svg" viewBox="0 0 174.1 322.63"><defs><style>.cls-1{fill:#161616;fill-rule:evenodd;}</style></defs><g id="Layer_2" data-name="Layer 2"><g id="Layer_4" data-name="Layer 4"><path class="cls-1" d="M87.05,196.59a53,53,0,0,1-51.17-39.8l-.82-3.21H83a2.57,2.57,0,1,0,0-5.14H34.4L34.3,146c0-.72,0-1.45,0-2.18V124.94H83a2.58,2.58,0,1,0,0-5.15H34.25V96.29H83a2.57,2.57,0,1,0,0-5.14H34.25V67.64H83a2.57,2.57,0,1,0,0-5.14H34.25V52.79a52.8,52.8,0,0,1,105.59,0v91a53,53,0,0,1-52.79,52.8Z"/><path class="cls-1" d="M86.83,242.09h0l-.59,0c-38-1.54-66.58-19-79.41-55.42A126.14,126.14,0,0,1,.16,150.81a115.47,115.47,0,0,1,.27-16.32,7.7,7.7,0,1,1,15.33,1.45,106.8,106.8,0,0,0-.25,14.42,113.16,113.16,0,0,0,5.6,31.49C31.59,212.6,54.76,226.79,87,226.69h.22c32.17,0,55.34-14.17,65.83-44.9a112.88,112.88,0,0,0,5.6-31.45,104.9,104.9,0,0,0-.26-14.4,7.7,7.7,0,0,1,15.33-1.46c.17,1.57.25,3.16.32,4.73.16,3.94.13,7.9-.05,11.84a125.71,125.71,0,0,1-6.76,35.89c-12.93,36.38-41.64,53.71-79.64,55.14h-.71Z"/><path class="cls-1" d="M79.34,311.08l-.58-76.68a7.86,7.86,0,0,1,8.39-7.72c3.95.14,9.75,2.42,9.63,7.15l-2,77.3a7.72,7.72,0,0,1-15.43-.05Z"/><path class="cls-1" d="M138.57,322.63h-103a7.72,7.72,0,1,1,0-15.43h103a7.72,7.72,0,0,1,0,15.43Z"/></g></g></svg>