<svg xmlns="http://www.w3.org/2000/svg" viewBox="0 0 153.1 101.58"><defs><style>.cls-1{fill:#002729;}.cls-2{fill:aqua;}.cls-3{font-size:52px;fill:#fff;font-family:RobotoCondensed-Bold, Roboto Condensed;font-weight:700;letter-spacing:-0.07em;}.cls-4{letter-spacing:-0.15em;}</style></defs><g id="Layer_2" data-name="Layer 2"><g id="Layer_1-2" data-name="Layer 1"><rect class="cls-1" x="3.1" y="32.81" width="150" height="51"/><path class="cls-2" d="M151.52,30.37a3.82,3.82,0,0,0,0-5.75c-7.4-6.25-29.94-20.38-81.42-19.15C23.41,6.58,7,14.21,1.47,18.57A6.08,6.08,0,0,0,.1,20.13l7.23,7.23L0,34.69a6.19,6.19,0,0,0,1.47,1.73c5.57,4.35,21.94,12,68.63,13.1C121.58,50.75,144.12,36.62,151.52,30.37Z"/><text class="cls-3" transform="translate(23.89 44.48)">SURF<tspan class="cls-2"><tspan x="0" y="43">C</tspan><tspan class="cls-4" x="25.86" y="43">Y</tspan><tspan x="46.46" y="43">AN</tspan></tspan></text></g></g></svg>