<svg xmlns="http://www.w3.org/2000/svg" viewBox="0 0 153.1 102.58"><defs><style>.cls-1{fill:#002729;}.cls-2,.cls-4{fill:aqua;}.cls-3{font-size:52px;fill:#fff;stroke:#002729;stroke-miterlimit:10;font-family:RobotoCondensed-Bold, Roboto Condensed;font-weight:700;letter-spacing:-0.07em;}.cls-4{stroke:#fff;}.cls-5{letter-spacing:-0.15em;}</style></defs><g id="Layer_2" data-name="Layer 2"><g id="Layer_1-2" data-name="Layer 1"><rect class="cls-1" x="3.1" y="33.31" width="150" height="51"/><path class="cls-2" d="M151.52,30.87a3.82,3.82,0,0,0,0-5.75C144.12,18.87,121.58,4.74,70.1,6,23.41,7.08,7,14.71,1.47,19.07A6.08,6.08,0,0,0,.1,20.63l7.23,7.23L0,35.19a6.19,6.19,0,0,0,1.47,1.73C7,41.27,23.41,48.91,70.1,50,121.58,51.25,144.12,37.12,151.52,30.87Z"/><text class="cls-3" transform="translate(23.89 44.98)">SURF<tspan class="cls-4"><tspan x="0" y="43">C</tspan><tspan class="cls-5" x="25.86" y="43">Y</tspan><tspan x="46.46" y="43">AN</tspan></tspan></text></g></g></svg>