<svg xmlns="http://www.w3.org/2000/svg" viewBox="0 0 153.1 101.7"><defs><style>.cls-1{fill:#002729;}.cls-2{fill:aqua;}.cls-3{font-size:52px;fill:#fff;font-family:RobotoCondensed-Bold, Roboto Condensed;font-weight:700;letter-spacing:-0.07em;}.cls-4{stroke:#002729;stroke-miterlimit:10;stroke-width:0.25px;}.cls-5{letter-spacing:-0.15em;}</style></defs><g id="Layer_2" data-name="Layer 2"><g id="Layer_1-2" data-name="Layer 1"><rect class="cls-1" x="3.1" y="32.94" width="150" height="51"/><path class="cls-2" d="M151.52,30.5a3.83,3.83,0,0,0,0-5.76C144.12,18.5,121.58,4.36,70.1,5.59,23.41,6.71,7,14.34,1.47,18.69A6.13,6.13,0,0,0,.1,20.26l7.23,7.22L0,34.82a6.19,6.19,0,0,0,1.47,1.73C7,40.9,23.41,48.53,70.1,49.65,121.58,50.88,144.12,36.74,151.52,30.5Z"/><text class="cls-3" transform="translate(23.89 44.61)"><tspan class="cls-4">SURF</tspan><tspan class="cls-2"><tspan x="0" y="43">C</tspan><tspan class="cls-5" x="25.86" y="43">Y</tspan><tspan x="46.46" y="43">AN</tspan></tspan></text></g></g></svg>